<svg xmlns="http://www.w3.org/2000/svg" viewBox="0 0 100 100"><path fill="#1793d1" d="M99.38 48.498L73.86 22.977c-.794-.794-2.198-.794-2.992 0l-5.533 5.533a2.116 2.116 0 0 0 0 2.992l18.493 18.492-18.492 18.494a2.116 2.116 0 0 0 0 2.992l5.533 5.534c.397.396.936.62 1.497.62.56 0 1.099-.224 1.496-.62l25.52-25.521a2.118 2.118 0 0 0 0-2.995zm-64.715 19.99l-18.49-18.492 18.493-18.492a2.115 2.115 0 0 0 0-2.992l-5.533-5.533a2.117 2.117 0 0 0-2.993 0L.62 48.499a2.117 2.117 0 0 0 0 2.993l25.521 25.52a2.12 2.12 0 0 0 1.497.622c.56 0 1.099-.225 1.496-.621l5.533-5.534a2.113 2.113 0 0 0-.002-2.991zM64.513 14.39a2.118 2.118 0 0 0-1.26-1.017l-4.485-1.324a2.115 2.115 0 0 0-2.628 1.43L35.317 84a2.116 2.116 0 0 0 1.43 2.628l4.485 1.324a2.112 2.112 0 0 0 2.628-1.431L64.683 16a2.111 2.111 0 0 0-.17-1.61z"/></svg>